<mxfile host="app.diagrams.net" modified="2024-01-02T17:54:38.949Z" agent="Mozilla/5.0 (Macintosh; Intel Mac OS X 10_15_7) AppleWebKit/537.36 (KHTML, like Gecko) Chrome/120.0.0.0 Safari/537.36" version="22.1.16" etag="xrof0q4_OtSMhTM3FVLr" type="github">
  <diagram name="PÃ¡gina-1" id="XEg8uUWyNRACShH54N24">
    <mxGraphModel>
      <root>
        <mxCell id="0" />
        <mxCell id="1" parent="0" />
      </root>
    </mxGraphModel>
  </diagram>
</mxfile>
